
        <svg xmlns="http://www.w3.org/2000/svg" xmlns:xlink="http://www.w3.org/1999/xlink" version="1.1" width="3300" 
        height="1890" viewBox="0 0 3300 1890">
			
			<g transform="scale(15) translate(10, 10)">
				<defs id="SvgjsDefs4679"></defs><g id="SvgjsG4680" featureKey="rootContainer" transform="matrix(1,0,0,1,0,0)" fill="#FF004D"><rect y="0" height="1" width="1" opacity="0"></rect><rect y="101" width="200" height="5"></rect></g><g id="SvgjsG4681" featureKey="nameFeature-0" transform="matrix(2.3862728141641254,0,0,2.3862728141641254,-3.8392477584088116,-7.867197669655454)" fill="#FF004D"><path d="M13.2 38.64 c0.32 0.04 0.08 1.36 -0.24 1.36 l-10.96 0 c-0.32 0 -0.56 -1.32 -0.24 -1.36 c2.04 -0.28 3.32 -1.08 3.32 -3.6 l0 -18.08 c0 -2.52 -1.28 -3.32 -3.32 -3.6 c-0.32 -0.04 -0.08 -1.36 0.24 -1.36 l10.96 0 c0.32 0 0.56 1.32 0.24 1.36 c-1.72 0.24 -3.32 0.8 -3.32 3.6 l0 18.08 c0 2.8 1.6 3.36 3.32 3.6 z M30.2 39 c0.32 0 0.24 1.08 0 1.16 c-2.52 0.84 -6.08 0.56 -8.52 -2.08 l-11.32 -12.24 l9.04 -9.28 c1.92 -1.96 1.8 -2.84 -0.32 -3.2 c-0.48 -0.08 -0.28 -1.36 0.04 -1.36 l9.2 0 c0.32 0 0.56 1.32 0.16 1.36 c-1.76 0.24 -3.84 1.04 -6.36 3.64 l-7.08 7.28 l10.32 11.08 c2.6 2.76 4 3.64 4.84 3.64 z M36.366 16.92 c-0.88 0 -3.04 -1.88 -3.04 -3.04 s2.16 -3.04 3.04 -3.04 s3.04 1.88 3.04 3.04 s-2.16 3.04 -3.04 3.04 z M32.006 40 c-0.32 0 -0.6 -1.16 -0.28 -1.2 c1.24 -0.16 2.8 -0.72 2.8 -3.04 l0 -8.84 c0 -2.44 -0.64 -3.04 -2.72 -3.32 c-0.32 -0.04 -0.2 -1.08 0.08 -1.16 l7.08 -1.68 c0.4 -0.08 0.6 0.2 0.48 0.72 c-0.28 1.28 -0.64 3.64 -0.64 6.24 l0 8.04 c0 2.32 1.56 2.88 2.8 3.04 c0.28 0.04 0.04 1.2 -0.28 1.2 l-9.32 0 z M74.492 21.4 c0.52 0 0.52 1.28 0.04 1.44 c-1.16 0.36 -2.36 1.52 -3.52 4.32 l-3.76 9 c-0.8 1.88 -1.16 2.92 -1.4 3.92 l-2.32 0.4 l-5.04 -12.24 l-3.32 7.92 c-0.8 1.88 -1.16 2.92 -1.4 3.92 l-2.32 0.4 l-5.44 -13.32 c-1.24 -3 -2.4 -4 -3.56 -4.32 c-0.48 -0.12 -0.48 -1.44 0.04 -1.44 l7.88 0 c0.56 0 0.56 1.24 0.04 1.44 c-0.84 0.32 -0.92 1.64 0.12 4.32 l2.96 7.6 l3.88 -9.28 c-0.76 -1.72 -1.36 -2.52 -2.64 -2.64 c-0.48 -0.04 -0.52 -1.44 0.04 -1.44 l7.64 0 c0.56 0 0.56 1.2 0.04 1.44 c-0.84 0.4 -0.88 1.64 0.16 4.32 l2.96 7.56 l3.08 -7.56 c1.16 -2.84 1 -4.12 -0.8 -4.32 c-0.44 -0.04 -0.44 -1.44 0.04 -1.44 l6.6 0 z M80.058 16.92 c-0.88 0 -3.04 -1.88 -3.04 -3.04 s2.16 -3.04 3.04 -3.04 s3.04 1.88 3.04 3.04 s-2.16 3.04 -3.04 3.04 z M75.69800000000001 40 c-0.32 0 -0.6 -1.16 -0.28 -1.2 c1.24 -0.16 2.8 -0.72 2.8 -3.04 l0 -8.84 c0 -2.44 -0.64 -3.04 -2.72 -3.32 c-0.32 -0.04 -0.2 -1.08 0.08 -1.16 l7.08 -1.68 c0.4 -0.08 0.6 0.2 0.48 0.72 c-0.28 1.28 -0.64 3.64 -0.64 6.24 l0 8.04 c0 2.32 1.56 2.88 2.8 3.04 c0.28 0.04 0.04 1.2 -0.28 1.2 l-9.32 0 z"></path></g>
			</g>
		</svg>
	